<?xml version="1.0" encoding="UTF-8"?>
<svg id="Layer_2" data-name="Layer 2" xmlns="http://www.w3.org/2000/svg" viewBox="0 0 535.6 127.42">
  <defs>
    <style>
      .cls-1 {
        fill: #06c;
      }
    </style>
  </defs>
  <g id="Layer_2-2" data-name="Layer 2">
    <g id="Layer_1" data-name="Layer 1">
      <path d="M141.6,94.45c.82,9.67,6.95,15.26,17.57,15.26,8.58,0,15.66-3.81,15.66-10.62,0-7.36-8.17-9.54-17.98-11.85-14.44-3.41-32.28-7.76-32.28-30.1,0-16.21,13.62-27.79,33.37-27.79s34.05,11.85,34.6,29.97h-19.75c-.68-7.49-6.13-12.26-15.26-12.26-8.04,0-13.21,3.81-13.21,9.4,0,7.08,8.31,9.13,19.21,11.71,13.35,3.27,31.06,8.04,31.06,29.01,0,19.07-14.58,30.24-35.55,30.24-22.07,0-36.37-12.67-37.19-32.97h19.75Z"/>
      <path d="M205.92,30.71h39.37c19.34,0,32.15,12.4,32.15,30.1,0,13.89-7.9,23.84-20.02,28.33l3.27,4.77c4.22,6.27,9.13,13.35,17.16,13.35,1.09,0,2.18-.14,3.13-.27v19.48c-2.72.68-5.45.95-7.76.95-15.66,0-24.11-13.08-32.28-26.15l-5.99-9.54h-8.58v34.33h-20.43V30.71ZM226.35,73.75h16.48c8.44,0,13.49-5.04,13.49-12.53s-5.04-12.53-13.49-12.53h-16.48v25.06Z"/>
      <path d="M292.61,126.06V30.71h38.14c17.3,0,30.24,8.72,30.24,24.52,0,9.13-4.22,16.75-12.53,20.16,10.08,3.27,17.44,9.81,17.44,22.75,0,17.71-13.89,27.92-34.05,27.92h-39.23ZM313.04,48.14v20.57h14.03c9.26,0,13.35-3.95,13.35-10.35s-3.95-10.22-13.21-10.22h-14.17ZM313.04,86.15v22.48h15.53c11.31,0,16.35-3.54,16.35-11.31s-5.04-11.17-16.35-11.17h-15.53Z"/>
      <rect x="377.14" y="30.71" width="20.43" height="95.35"/>
      <path d="M411.96,108.08c6.27,0,11.17-2.18,11.17-11.03V30.71h20.43v69.2c0,21.52-12.8,27.52-28.6,27.52-3.27,0-6.95-.27-10.22-.68v-19.34c2.45.41,4.9.68,7.22.68"/>
      <path d="M452.1,126.06v-4.09c0-19.75,7.22-42.23,14.98-60.34l13.35-30.92h26.83l13.35,30.92c9.13,21.25,14.98,40.59,14.98,60.34v4.09h-20.43v-4.09c0-5.72-.55-11.31-1.64-16.75h-40.05c-.95,5.45-1.63,11.03-1.63,16.75v4.09h-19.75ZM508.76,87.23c-2.32-7.22-3.95-11.99-6.68-18.39l-8.17-19.07h-.55l-8.17,19.07c-2.72,6.4-4.36,11.17-6.81,18.39h30.38Z"/>
      <path class="cls-1" d="M15.81,31.63h0c8.73,0,15.81-7.08,15.81-15.81h0C31.63,7.08,24.55,0,15.81,0S0,7.08,0,15.81H0C0,24.55,7.08,31.63,15.81,31.63"/>
      <path class="cls-1" d="M0,94.88v18.53c0,7.24,5.86,13.1,13.1,13.1h5.43c7.23,0,13.1-5.86,13.1-13.1V45.46c0-5.1-6.17-7.66-9.78-4.05L3.84,59.42c-2.46,2.46-3.84,5.79-3.84,9.26v26.2Z"/>
      <path class="cls-1" d="M77.33,59.42l18.01-18.01c3.61-3.61,1.05-9.78-4.05-9.78h-17.92V13.1c0-7.24-5.86-13.1-13.1-13.1h-5.43c-7.24,0-13.1,5.87-13.1,13.1v18.53h.13v57.72c0,3.55,1.41,6.95,3.92,9.45l23.87,23.87c2.46,2.46,5.79,3.84,9.26,3.84h13.1c7.24,0,13.1-5.86,13.1-13.1v-5.43c0-7.24-5.86-13.1-13.1-13.1h-5.43c-7.23,0-13.1-5.86-13.1-13.1v-13.1c0-3.47,1.38-6.81,3.84-9.26"/>
    </g>
  </g>
</svg>