<?xml version="1.0" encoding="UTF-8"?>
<svg id="Layer_2" data-name="Layer 2" xmlns="http://www.w3.org/2000/svg" xmlns:xlink="http://www.w3.org/1999/xlink" viewBox="0 0 965 263.1">
  <defs>
    <style>
      .cls-1 {
        fill: none;
      }

      .cls-2 {
        fill: #262185;
      }

      .cls-3 {
        fill: #f7eec6;
      }

      .cls-4 {
        clip-path: url(#clippath);
      }
    </style>
    <clipPath id="clippath">
      <rect class="cls-1" width="965" height="263.1"/>
    </clipPath>
  </defs>
  <g id="Layer_1-2" data-name="Layer 1">
    <g class="cls-4">
      <g>
        <path class="cls-2" d="M157.3,105.3v26.3c0-14.4-11.5-26.1-25.9-26.3h25.9Z"/>
        <path class="cls-2" d="M157.3,131.6v105.2c0,14.5-11.8,26.3-26.3,26.3s-26.3-11.8-26.3-26.3v-44.2l-59.7,62.8c-10.3,10.3-27,10.3-37.2,0s-10.3-27,0-37.2l57.1-60.2H26.4C11.9,158,.1,146.2.1,131.7s11.8-26.3,26.3-26.3h104.2c-14.3.2-25.9,11.9-25.9,26.3s10.4,24.9,23.6,26.2h5.4c13.3-1.3,23.6-12.6,23.6-26.2v-.1Z"/>
        <path class="cls-2" d="M104.7,157.8v-26.2c0,13.6,10.4,24.9,23.6,26.2h-23.6Z"/>
        <path class="cls-2" d="M262,131.5c0,14.5-11.8,26.3-26.3,26.3h-102c13.3-1.3,23.6-12.6,23.6-26.2s-11.5-26.1-25.9-26.3h-.9c-14.3.2-25.9,11.9-25.9,26.3V26.3c0-14.6,11.8-26.3,26.3-26.3s26.3,11.8,26.3,26.3v44.1L216.9,7.6c10.3-10.3,27-10.3,37.2,0,10.3,10.3,10.3,27,0,37.2l-57.1,60.2h38.5c14.5,0,26.3,11.8,26.3,26.3l.2.2Z"/>
        <path class="cls-3" d="M133.7,157.8c-.9,0-1.8.1-2.7.1s-1.8,0-2.7-.1h5.4Z"/>
        <path class="cls-2" d="M326.5,63.9h22.3l-.6,14.7h.1c2.6-9.2,8.3-15.6,18.8-15.6s17.1,5.2,18.5,14.9h.1c2.3-8.8,8.4-14.9,18.8-14.9s18.8,7.6,18.8,21.1v35.5h-22.3v-29.9c0-5.2-2.4-8.1-6.7-8.1s-8.5,3.8-8.5,11.8v26.2h-22.3v-29.9c0-5.2-2.2-8.1-6.7-8.1s-8.2,4-8.2,12.1v25.9h-22.3v-55.7h.2Z"/>
        <path class="cls-2" d="M434,63.9h22.3l-.7,15.6h.2c2.3-9.9,7.6-16.5,18.3-16.5s17.4,7.2,17.4,22.2-.3,9.7-.6,12.9h-19.2c.2-2.6.2-5.6.2-7.3,0-6.4-2.4-9-6.5-9s-9.1,4.6-9.1,14.5v23.4h-22.3v-55.7h0v-.1Z"/>
        <path class="cls-2" d="M541.4,84.3c0-5.1-3.2-7.7-8.6-7.7s-8.6,2.5-9.6,9.1h18.2v-1.5h0v.1ZM560.5,94.9h-37.5c.6,8,3.8,11,9.9,11s8.2-2,8.6-6.8h19.1c-.2,13.2-10,21.3-28.6,21.3s-31.4-11.5-31.4-28.2,12.1-29.3,31.6-29.3,28.4,8.8,28.4,26.7v5.2l-.1.1Z"/>
        <path class="cls-2" d="M572,41.9h18.8l3.8,9.1h.2l3.8-9.1h18.8l-11.4,17h-22.8l-11.4-17h.2ZM568.4,106.3l23.9-25.4v-.2h-23v-16.8h50.8v13.1l-24.1,25.7h0c0,.1,24.1.1,24.1.1v16.8h-51.7v-13.3h0Z"/>
        <path class="cls-2" d="M667,99.5v-1.5h-11.5c-3.7,0-5.9,1.8-5.9,4.5s2.7,5.3,7.2,5.3,10.2-3,10.2-8.4h0v.1ZM629.3,104.2c0-8.8,6-15.2,19.8-15.2h17.8v-4.1c0-5.2-2.7-7.4-8.6-7.4s-7.7,2.3-7.7,6.1,0,1.1.1,2.3h-19.5c-.2-1.1-.3-2.5-.3-3.7,0-11.8,9.4-19.2,28.5-19.2s29.8,9,29.8,23.8v32.8h-22.3c.3-2.4.7-7.1.7-10.6h-.1c-1.7,7-7.2,11.5-17.6,11.5s-20.6-6.6-20.6-16.2h0v-.1Z"/>
        <path class="cls-2" d="M328.7,190.7h8.3c0,7.4,4.5,11.8,16.1,11.8s17-3.5,17-9.5-.7-4.4-3.5-5.8c-2.6-1.2-8.5-1.9-15.3-2.6-9.1-.8-14.7-1.9-18-4.4-3.1-2.3-4.6-6.3-4.6-10.4,0-10.5,9.6-17.3,24.5-17.3s23.7,7.3,23.7,19.8h-8.4c-.1-8.3-5.1-12.2-15-12.2s-15.8,3.5-15.8,9,.3,5,3.6,6.3c2.7,1.1,8.2,1.8,15.6,2.6,8.7.9,13,1.7,16.8,3.8,3.7,2.1,5.5,6.4,5.5,10.6,0,10.9-9,17.5-25.9,17.5s-24.6-8.8-24.6-19.5h0v.3Z"/>
        <path class="cls-2" d="M437.8,181.6c0-12.6-7.4-20.8-19.2-20.8s-19.2,8.1-19.2,20.8,7.4,20.5,19.2,20.5,19.2-8,19.2-20.5ZM390.4,181.6c0-17.6,10.9-28.9,28.2-28.9s28.2,11.3,28.2,28.9-10.9,28.7-28.2,28.7-28.2-11.2-28.2-28.7Z"/>
        <path class="cls-2" d="M460.9,131.2h9v78.1h-9v-78.1ZM486.9,153.6h9v55.7h-9v-55.7ZM486.5,135.1h9.7v11.4h-9.7v-11.4Z"/>
        <path class="cls-2" d="M558.1,182.1v-2.8c0-11.3-7.8-18.5-20.1-18.5s-19.1,8.7-19.1,20.3,7.4,21,18.9,21,20.2-7.8,20.2-20h.1ZM510,181.1c0-16.6,10.4-28.4,27.3-28.4s18.7,4.7,20.8,12.1h.1v-33.6h9v78.1h-9c.3-5,.4-9.9.6-14.9h-.2c-2.1,9.6-9.6,15.8-22,15.8s-26.5-11.7-26.5-29.1h-.1Z"/>
        <path class="cls-2" d="M624.3,186v-.8h-21.9c-9.1,0-12.7,2.7-12.7,8.1s5.2,9.2,14,9.2c12.6,0,20.6-6.4,20.6-16.6v.1ZM581.2,193.3c0-7.9,5.5-14.7,20.4-14.7h22.7v-4.1c0-9.6-5.6-14.2-17-14.2s-15.9,3.8-15.9,11.4,0,1.1.1,2h-8.3c-.1-.8-.2-2.4-.2-3.4,0-11.1,9.5-17.7,24.6-17.7s25.8,8.1,25.8,22.7v34h-9c.1-2.6.3-7.8.5-13.2h-.1c-1.9,8.6-8.9,14.1-22.8,14.1s-20.6-6.4-20.6-16.9h-.2Z"/>
        <path class="cls-2" d="M648.6,153.6h9l-.2,16.1h.1c2.6-9.7,8.3-17,20.3-17s19.2,8.3,19.2,21.8-.3,7.9-.6,9.9h-8.2c.2-1.7.4-4.5.4-8,0-10.3-3.8-15.6-13-15.6s-18,9.9-18,23.8v24.7h-9v-55.7h0Z"/>
        <path class="cls-2" d="M710.5,153.6h9l-.2,15h.1c3-9.7,10.8-15.9,24.1-15.9s23.3,8.5,23.3,21.8v34.8h-9v-32.9c0-9.5-5.4-15.6-17.4-15.6s-21,7.8-21,21.1v27.4h-9v-55.7h.1Z"/>
        <path class="cls-2" d="M827.2,181.6c0-12.6-7.4-20.8-19.2-20.8s-19.2,8.1-19.2,20.8,7.4,20.5,19.2,20.5,19.2-8,19.2-20.5ZM779.8,181.6c0-17.6,10.9-28.9,28.2-28.9s28.2,11.3,28.2,28.9-10.9,28.7-28.2,28.7-28.2-11.2-28.2-28.7Z"/>
        <path class="cls-2" d="M846.7,190.7h8.3c0,7.4,4.5,11.8,16.1,11.8s17-3.5,17-9.5-.7-4.4-3.5-5.8c-2.6-1.2-8.5-1.9-15.3-2.6-9.1-.8-14.7-1.9-18-4.4-3-2.3-4.6-6.3-4.6-10.4,0-10.5,9.6-17.3,24.5-17.3s23.7,7.3,23.7,19.8h-8.3c-.1-8.3-5.1-12.2-15-12.2s-15.8,3.5-15.8,9,.3,5,3.6,6.3c2.7,1.1,8.2,1.8,15.6,2.6,8.7.9,13,1.7,16.8,3.8,3.7,2.1,5.5,6.4,5.5,10.6,0,10.9-9,17.5-25.9,17.5s-24.6-8.8-24.6-19.5h0l-.1.3Z"/>
        <path class="cls-2" d="M913.6,188.9v-27.4h-9.2v-7.9h7.4c1.8,0,2.5-.9,2.7-3.8l.4-8.8h7.7v12.6h20.2v7.9h-20.2v26.8c0,8.5,2.7,13.5,11.1,13.5s7.4-.7,8.7-1.1v7.7c-1.7.7-5,1.4-9.5,1.4-13.5,0-19.3-8.6-19.3-20.9h0Z"/>
        <path class="cls-2" d="M955.7,153.6h9v55.7h-9v-55.7ZM955.3,135.1h9.7v11.4h-9.7v-11.4Z"/>
      </g>
    </g>
  </g>
</svg>